<mxfile host="app.diagrams.net" modified="2024-03-24T12:15:11.165Z" agent="Mozilla/5.0 (Macintosh; Intel Mac OS X 10_15_7) AppleWebKit/605.1.15 (KHTML, like Gecko) Version/17.1 Safari/605.1.15" version="24.1.0" etag="bDG5jC_O9ORSRbhwj3nC" type="github">
  <diagram name="페이지-1" id="GCBecfRHG_4n8pJbEyoE">
    <mxGraphModel>
      <root>
        <mxCell id="0" />
        <mxCell id="1" parent="0" />
      </root>
    </mxGraphModel>
  </diagram>
</mxfile>
